<svg width="24" height="24" viewBox="0 0 24 24" fill="none" xmlns="http://www.w3.org/2000/svg">
<path d="M8.61607 11.2932H6.17857V9.10631H8.61607C8.89313 9.10631 9.15884 9.22152 9.35475 9.42658C9.55065 9.63164 9.66071 9.90977 9.66071 10.1998C9.66071 10.4898 9.55065 10.7679 9.35475 10.973C9.15884 11.178 8.89313 11.2932 8.61607 11.2932ZM8.96429 12.7512H6.17857V15.6671H8.96429C9.33369 15.6671 9.68797 15.5135 9.94918 15.24C10.2104 14.9666 10.3571 14.5958 10.3571 14.2091C10.3571 13.8224 10.2104 13.4516 9.94918 13.1782C9.68797 12.9048 9.33369 12.7512 8.96429 12.7512ZM15.9286 11.2932C15.4966 11.2934 15.0753 11.4336 14.7227 11.6947C14.3701 11.9558 14.1034 12.3249 13.9594 12.7512H17.8977C17.7537 12.3249 17.4871 11.9558 17.1344 11.6947C16.7818 11.4336 16.3605 11.2934 15.9286 11.2932ZM21.5 3.95794V20.5421C21.5 20.9287 21.3533 21.2996 21.092 21.573C20.8308 21.8464 20.4766 22 20.1071 22H3.39286C3.02345 22 2.66917 21.8464 2.40796 21.573C2.14675 21.2996 2 20.9287 2 20.5421V3.95794C2 3.57127 2.14675 3.20044 2.40796 2.92702C2.66917 2.6536 3.02345 2.5 3.39286 2.5H20.1071C20.4766 2.5 20.8308 2.6536 21.092 2.92702C21.3533 3.20044 21.5 3.57127 21.5 3.95794ZM13.1429 8.37734C13.1429 8.57068 13.2162 8.75609 13.3468 8.8928C13.4774 9.02951 13.6546 9.10631 13.8393 9.10631H18.0179C18.2026 9.10631 18.3797 9.02951 18.5103 8.8928C18.6409 8.75609 18.7143 8.57068 18.7143 8.37734C18.7143 8.18401 18.6409 7.99859 18.5103 7.86188C18.3797 7.72517 18.2026 7.64837 18.0179 7.64837H13.8393C13.6546 7.64837 13.4774 7.72517 13.3468 7.86188C13.2162 7.99859 13.1429 8.18401 13.1429 8.37734ZM11.75 14.2091C11.7498 13.7315 11.6375 13.2613 11.423 12.8398C11.2085 12.4183 10.8984 12.0584 10.5199 11.7917C10.8062 11.4163 10.9855 10.964 11.0371 10.4868C11.0887 10.0095 11.0106 9.52671 10.8117 9.09387C10.6128 8.66104 10.3012 8.29576 9.91282 8.04005C9.52441 7.78433 9.07493 7.64857 8.61607 7.64837H5.48214C5.29744 7.64837 5.1203 7.72517 4.98969 7.86188C4.85909 7.99859 4.78571 8.18401 4.78571 8.37734V16.396C4.78571 16.5894 4.85909 16.7748 4.98969 16.9115C5.1203 17.0482 5.29744 17.125 5.48214 17.125H8.96429C9.7031 17.125 10.4117 16.8178 10.9341 16.271C11.4565 15.7241 11.75 14.9825 11.75 14.2091ZM19.4107 13.4801C19.4107 12.6467 19.1377 11.8384 18.6374 11.19C18.1371 10.5417 17.4395 10.0924 16.6611 9.91705C15.8827 9.74171 15.0703 9.85093 14.3595 10.2265C13.6487 10.602 13.0823 11.2213 12.7547 11.9809C12.4272 12.7406 12.3582 13.5948 12.5594 14.4013C12.7606 15.2077 13.2197 15.9176 13.8603 16.4126C14.5009 16.9077 15.2842 17.1579 16.0797 17.1218C16.8752 17.0856 17.6349 16.7651 18.232 16.2138C18.3705 16.0858 18.4548 15.9055 18.4663 15.7125C18.4778 15.5195 18.4156 15.3296 18.2934 15.1846C18.2329 15.1128 18.1594 15.0542 18.0772 15.0121C17.9951 14.97 17.9058 14.9453 17.8145 14.9393C17.6301 14.9272 17.4486 14.9924 17.3101 15.1203C17.0537 15.3568 16.7458 15.5238 16.4135 15.6067C16.0811 15.6897 15.7343 15.686 15.4036 15.5961C15.0729 15.5061 14.7683 15.3326 14.5165 15.0908C14.2647 14.849 14.0734 14.5463 13.9594 14.2091H18.7143C18.899 14.2091 19.0761 14.1323 19.2067 13.9956C19.3373 13.8589 19.4107 13.6735 19.4107 13.4801Z" fill="black"/>
</svg>
