<svg width="24" height="24" viewBox="0 0 24 24" fill="none" xmlns="http://www.w3.org/2000/svg">
<path d="M10.25 10.8249C10.25 11.1079 10.162 11.3846 9.9972 11.6199C9.83238 11.8553 9.59811 12.0387 9.32403 12.147C9.04994 12.2553 8.74834 12.2837 8.45736 12.2285C8.16639 12.1732 7.89912 12.0369 7.68934 11.8368C7.47956 11.6367 7.3367 11.3817 7.27882 11.1041C7.22094 10.8265 7.25065 10.5387 7.36418 10.2772C7.47771 10.0158 7.66997 9.79225 7.91665 9.635C8.16332 9.47775 8.45333 9.39382 8.75 9.39382C9.14782 9.39382 9.52936 9.5446 9.81066 9.81297C10.092 10.0814 10.25 10.4453 10.25 10.8249ZM21.5 3.43106V20.0689C21.5 20.4485 21.342 20.8125 21.0607 21.0808C20.7794 21.3492 20.3978 21.5 20 21.5H3.5C3.10218 21.5 2.72064 21.3492 2.43934 21.0808C2.15804 20.8125 2 20.4485 2 20.0689V3.43106C2 3.05152 2.15804 2.68753 2.43934 2.41915C2.72064 2.15077 3.10218 2 3.5 2H20C20.3978 2 20.7794 2.15077 21.0607 2.41915C21.342 2.68753 21.5 3.05152 21.5 3.43106ZM12.4766 14.9392C12.2339 14.0747 11.6584 13.3292 10.865 12.8516C11.2863 12.452 11.5738 11.9421 11.691 11.3864C11.8082 10.8308 11.7499 10.2544 11.5233 9.73044C11.2968 9.20646 10.9123 8.75845 10.4186 8.4432C9.92483 8.12795 9.3441 7.95966 8.75 7.95966C8.1559 7.95966 7.57517 8.12795 7.08143 8.4432C6.5877 8.75845 6.20319 9.20646 5.97666 9.73044C5.75012 10.2544 5.69175 10.8308 5.80896 11.3864C5.92616 11.9421 6.21366 12.452 6.635 12.8516C5.84211 13.3297 5.26681 14.075 5.02344 14.9392C4.97371 15.123 5.00257 15.3182 5.10366 15.4817C5.20475 15.6453 5.3698 15.7638 5.5625 15.8113C5.7552 15.8587 5.95976 15.8312 6.13118 15.7347C6.3026 15.6383 6.42683 15.4808 6.47656 15.297C6.72406 14.3802 7.70094 13.687 8.75 13.687C9.79906 13.687 10.7769 14.3784 11.0234 15.297C11.0732 15.4808 11.1974 15.6383 11.3688 15.7347C11.5402 15.8312 11.7448 15.8587 11.9375 15.8113C12.1302 15.7638 12.2952 15.6453 12.3963 15.4817C12.4974 15.3182 12.5263 15.123 12.4766 14.9392ZM18.5 12.9715C18.5 12.7817 18.421 12.5997 18.2803 12.4655C18.1397 12.3313 17.9489 12.256 17.75 12.256H14C13.8011 12.256 13.6103 12.3313 13.4697 12.4655C13.329 12.5997 13.25 12.7817 13.25 12.9715C13.25 13.1613 13.329 13.3433 13.4697 13.4774C13.6103 13.6116 13.8011 13.687 14 13.687H17.75C17.9489 13.687 18.1397 13.6116 18.2803 13.4774C18.421 13.3433 18.5 13.1613 18.5 12.9715ZM18.5 10.1094C18.5 9.91959 18.421 9.73759 18.2803 9.6034C18.1397 9.46921 17.9489 9.39382 17.75 9.39382H14C13.8011 9.39382 13.6103 9.46921 13.4697 9.6034C13.329 9.73759 13.25 9.91959 13.25 10.1094C13.25 10.2991 13.329 10.4811 13.4697 10.6153C13.6103 10.7495 13.8011 10.8249 14 10.8249H17.75C17.9489 10.8249 18.1397 10.7495 18.2803 10.6153C18.421 10.4811 18.5 10.2991 18.5 10.1094Z" fill="black"/>
</svg>
